<svg xmlns="http://www.w3.org/2000/svg" width="26" height="26">
    <symbol viewBox="0 0 26 26" id="full-book">
        <path d="M0,0.960851308 C0,0.413093575 0.443875415,-0.0214807539 0.989817561,0.000821580054 C0.989817561,0.000821580054 3.22715595,-0.0205138512 6.41185678,0.717736412 C9.59655762,1.45598667 11,2.42510289 11,2.42510289 L11,21.9690482 C11,21.9690482 9.20044254,20.8875628 6.41185678,20.3805472 C3.62327103,19.8735316 0.990678488,19.962717 0.990678488,19.962717 C0.443541867,19.9662136 0,19.5137426 0,18.9772451 L0,0.960851308 Z" transform="translate(2, 2)"/>
        <path fill-opacity=".75" d="M11,0.960851308 C11,0.413093575 11.4438754,-0.0214807539 11.9898176,0.000821580054 C11.9898176,0.000821580054 14.2271559,-0.0205138512 17.4118568,0.717736412 C20.5965576,1.45598667 22,2.42510289 22,2.42510289 L22,21.9690482 C22,21.9690482 20.2004425,20.8875628 17.4118568,20.3805472 C14.623271,19.8735316 11.9906785,19.962717 11.9906785,19.962717 C11.4435419,19.9662136 11,19.5137426 11,18.9772451 L11,0.960851308 Z" transform="matrix(-1 0 0 1 33 0) translate(-2, 2)"/>
    </symbol>
    <symbol viewBox="0 0 26 26" id="half-book">
        <path d="M0,0.960851308 C0,0.413093575 0.443875415,-0.0214807539 0.989817561,0.000821580054 C0.989817561,0.000821580054 3.22715595,-0.0205138512 6.41185678,0.717736412 C9.59655762,1.45598667 11,2.42510289 11,2.42510289 L11,21.9690482 C11,21.9690482 9.20044254,20.8875628 6.41185678,20.3805472 C3.62327103,19.8735316 0.990678488,19.962717 0.990678488,19.962717 C0.443541867,19.9662136 0,19.5137426 0,18.9772451 L0,0.960851308 Z" transform="translate(2, 2)"/>
        <path d="M13,2.04703897 C12.7734429,2.02984653 12.5642721,2.01771099 12.3737306,2.00992625 C12.1943211,2.00259633 12.0696379,2.00045317 12.004413,2.00076663 L11.961826,1.99999423 C12.5346407,1.99448158 13,1.52483049 13,0.960851308 L13,17.9609985 C13.3588287,17.9674769 13.7522164,17.9810933 14.1734966,18.0038604 C15.3848958,18.0693275 16.5988003,18.1999297 17.7696277,18.4128074 C18.7612301,18.5930988 19.7030839,18.8484838 20.5876808,19.1601291 C21.1272536,19.3502216 21.5999032,19.5426906 22,19.7242825 L22,21.9690482 C22,21.9690482 20.2004425,20.8875628 17.4118568,20.3805472 C14.623271,19.8735316 11.9906785,19.962717 11.9906785,19.962717 C11.4435419,19.9662136 11,19.5137426 11,18.9772451 L11,0.960851308 C11,0.413093575 11.4438754,-0.0214807539 11.9898176,0.000821580054 C11.9898176,0.000821580054 14.2271559,-0.0205138512 17.4118568,0.717736412 C20.5964857,1.45597 21.9999366,2.42505912 22,2.42510289 L22,4.67578125 C21.9659951,4.65229992 20.5876808,3.53112793 16.96021,2.66607292 C15.6909476,2.3633877 14.4906397,2.18366426 13.3986967,2.08098635 C13.2604417,2.06798592 13.127469,2.05671204 13,2.04703897 Z" transform="matrix(-1 0 0 1 33 0) translate(-2, 2)"/>
    </symbol>
    <symbol viewBox="0 0 26 26" id="outline-book">
        <path d="M2,2.04703897 C1.77344294,2.02984653 1.56427206,2.01771099 1.37373057,2.00992625 C1.19432108,2.00259633 1.06963792,2.00045317 1.00441297,2.00076663 L0.961825983,1.99999423 C1.53464066,1.99448158 2,1.52483049 2,0.960851308 L2,17.9609985 C2.35882874,17.9674769 2.75221644,17.9810933 3.17349659,18.0038604 C4.38489577,18.0693275 5.59880027,18.1999297 6.76962766,18.4128074 C7.7612301,18.5930988 8.70308388,18.8484838 9.58768078,19.1601291 C10.1272536,19.3502216 10.5999032,19.5426906 11,19.7242825 L11,21.9690482 C11,21.9690482 9.20044254,20.8875628 6.41185678,20.3805472 C3.62327103,19.8735316 0.990678488,19.962717 0.990678488,19.962717 C0.443541867,19.9662136 0,19.5137426 0,18.9772451 L0,0.960851308 C0,0.413093575 0.443875415,-0.0214807539 0.989817561,0.000821580054 C0.989817561,0.000821580054 3.22715595,-0.0205138512 6.41185678,0.717736412 C9.59648571,1.45597 10.9999366,2.42505912 11,2.42510289 L9.86356087,4.07085685 C9.82955598,4.04737552 9.67953068,3.95912675 9.40683184,3.82517771 C8.89597111,3.57424409 8.24943974,3.31624851 7.46021973,3.07047639 C6.99509744,2.92563199 6.49535174,2.79012494 5.96020998,2.66607292 C4.69045583,2.37172932 3.49063967,2.18366426 2.39869666,2.08098635 C2.26044165,2.06798592 2.12746896,2.05671204 2,2.04703897 Z" transform="translate(2, 2)"/>
        <path d="M13,2.04703897 C12.7734429,2.02984653 12.5642721,2.01771099 12.3737306,2.00992625 C12.1943211,2.00259633 12.0696379,2.00045317 12.004413,2.00076663 L11.961826,1.99999423 C12.5346407,1.99448158 13,1.52483049 13,0.960851308 L13,17.9609985 C13.3588287,17.9674769 13.7522164,17.9810933 14.1734966,18.0038604 C15.3848958,18.0693275 16.5988003,18.1999297 17.7696277,18.4128074 C18.7612301,18.5930988 19.7030839,18.8484838 20.5876808,19.1601291 C21.1272536,19.3502216 21.5999032,19.5426906 22,19.7242825 L22,21.9690482 C22,21.9690482 20.2004425,20.8875628 17.4118568,20.3805472 C14.623271,19.8735316 11.9906785,19.962717 11.9906785,19.962717 C11.4435419,19.9662136 11,19.5137426 11,18.9772451 L11,0.960851308 C11,0.413093575 11.4438754,-0.0214807539 11.9898176,0.000821580054 C11.9898176,0.000821580054 14.2271559,-0.0205138512 17.4118568,0.717736412 C20.5964857,1.45597 21.9999366,2.42505912 22,2.42510289 L20.8635609,4.07085685 C20.829556,4.04737552 20.6795307,3.95912675 20.4068318,3.82517771 C19.8959711,3.57424409 19.2494397,3.31624851 18.4602197,3.07047639 C17.9950974,2.92563199 17.4953517,2.79012494 16.96021,2.66607292 C15.6904558,2.37172932 14.4906397,2.18366426 13.3986967,2.08098635 C13.2604417,2.06798592 13.127469,2.05671204 13,2.04703897 Z" transform="matrix(-1 0 0 1 33 0) translate(-2, 2)"/>
        <polygon points="10 2 11 2.426 12 2 12 21 10 21" transform="translate(2, 2)"/>
    </symbol>
</svg>
