<?xml version="1.0" encoding="UTF-8" standalone="no"?>
<svg width="296px" height="54px" viewBox="0 0 296 54" version="1.1" xmlns="http://www.w3.org/2000/svg" xmlns:xlink="http://www.w3.org/1999/xlink">
    <!-- Generator: Sketch 39 (31667) - http://www.bohemiancoding.com/sketch -->
    <title>Vector_Banner_000025</title>
    <desc>Created with Sketch.</desc>
    <defs>
        <rect id="path-1" x="0" y="0" width="296" height="54"></rect>
    </defs>
    <g id="Page-1" stroke="none" stroke-width="1" fill="none" fill-rule="evenodd">
        <g id="Group-3" transform="translate(-2.000000, -2.000000)">
            <g id="Group-2-Copy-5">
                <g id="Vector_Banner_000025" transform="translate(2.000000, 2.000000)">
                    <mask id="mask-2" fill="white">
                        <use xlink:href="#path-1"></use>
                    </mask>
                    <use id="Mask" fill-opacity="0.699999988" fill="#F2F2F2" xlink:href="#path-1"></use>
                    <g id="Group-6" opacity="0.198285914" mask="url(#mask-2)" stroke="#979797">
                        <g transform="translate(170.000000, -124.000000)">
                            <path d="M126.918512,8.71841598 L153.298753,58.4549982 C172.150246,93.9974667 220.622991,1.24186513 210.315789,43.271081 L193.809298,97.0978804 C182.012562,135.565052 281.8602,104.260439 244.859883,126.689052 L195.135638,153.075839 C159.601987,171.93201 252.334579,220.416782 210.315789,210.107023 L156.502342,193.595396 C118.044714,181.796773 149.341561,281.668146 126.918512,244.660727 L100.53931,194.924145 C81.6867771,159.380637 33.2140326,252.135199 43.5212343,210.107023 L60.0287644,156.281263 C71.8244607,117.814092 -28.0221375,149.117665 8.97714065,126.689052 L58.7013848,100.303305 C94.2360757,81.4460939 1.50348396,32.9613219 43.5212343,43.271081 L97.3357203,59.7816675 C135.79231,71.5813304 104.495463,-28.2900429 126.918512,8.71841598 L126.918512,8.71841598 Z M116.791135,13.245311 L146.429017,58.8084995 C167.608882,91.3680414 206.25881,-1.99059164 199.954536,39.3108276 L188.702473,92.4888483 C180.661275,130.493349 273.989473,91.8151165 240.33515,116.561242 L194.784304,146.204399 C162.23076,167.389519 255.566234,206.050076 214.276099,199.744238 L161.110231,188.488343 C123.115158,180.444111 161.783796,273.796506 137.044849,240.133832 L107.408006,194.570644 C86.2281409,162.011102 47.5782137,255.368695 53.8814479,214.069355 L65.1345505,160.889255 C73.1757477,122.886834 -20.1514103,161.564027 13.5018733,136.817902 L59.0537589,107.173705 C91.6062633,85.9885846 -1.72921039,47.3290671 39.5609238,53.6349051 L92.7267921,64.8897602 C130.721865,72.9350321 92.0532275,-20.416323 116.791135,13.245311 L116.791135,13.245311 Z M107.895509,18.8659805 L140.26403,60.0811039 C163.395985,89.5350336 192.513102,-3.43994665 189.998669,36.7656188 L183.750525,88.8030782 C179.285042,125.992446 265.601099,80.8399433 235.401913,107.492896 L194.195974,139.870489 C164.749351,163.008183 257.702307,192.131485 217.506715,189.617468 L165.481125,183.366735 C128.303061,178.901182 173.442284,265.238657 146.795944,235.030938 L114.427422,193.814775 C91.2954673,164.360845 62.1793897,257.336865 64.6927836,217.1313 L70.9409269,165.092801 C75.4064108,127.905512 -10.9096465,173.056975 19.2895396,146.404023 L60.4954782,114.02643 C89.9431408,90.8887354 -3.01085416,61.7654332 37.1847376,64.2794507 L89.2103275,70.5291444 C126.389431,74.9957363 81.2502074,-11.3417387 107.895509,18.8659805 L107.895509,18.8659805 Z M99.8387196,25.2009303 L134.411918,61.9588192 C159.118642,88.2260394 179.083388,-3.43890694 180.114524,35.3360183 L178.578215,85.779603 C177.478475,121.82945 256.396755,71.1321759 229.715073,99.2802306 L192.967342,133.862007 C166.706638,158.574862 258.348845,178.545602 219.5825,179.576993 L169.151428,178.038223 C133.111564,176.939251 183.795222,255.877113 155.65415,229.188811 L121.080952,192.430922 C96.375267,166.164741 76.410521,257.829688 75.3783456,219.054762 L76.9156944,168.610138 C78.0154342,132.561331 -0.9028464,183.257565 25.7788356,155.10951 L62.5265665,120.528773 C88.7872707,95.8159186 -2.85493642,75.8462187 35.9114094,74.8137872 L86.3414412,76.3525572 C122.381306,77.4504904 71.6976476,-1.48737225 99.8387196,25.2009303 L99.8387196,25.2009303 Z M92.6914507,32.0962836 L128.942324,64.3397539 C154.848575,87.3817953 166.131822,-2.10911852 170.434112,34.9367699 L173.273893,83.374755 C175.302903,117.991882 246.544834,62.6918144 223.399366,91.9294846 L191.163894,128.189353 C168.127569,154.102032 257.595243,165.389118 220.559584,169.692475 L172.132575,172.532962 C137.526115,174.562475 192.810385,245.822083 163.579968,222.669832 L127.329095,190.427402 C101.423883,167.38432 90.1406366,256.876274 85.8373072,219.831425 L82.998565,171.3924 C80.9685161,136.776313 9.72658523,192.074301 32.8730925,162.836631 L65.1085642,126.576763 C88.1448896,100.664084 -1.32382428,89.3780375 35.7118347,85.07468 L84.1388433,82.2341937 C118.746343,80.2046808 63.4610335,8.94507264 92.6914507,32.0962836 L92.6914507,32.0962836 Z M86.4859249,39.4376722 L123.897865,67.1708828 C150.633599,86.9877454 153.784177,0.462083017 161.059298,35.5138086 L167.908244,81.5843753 C172.803022,114.507816 236.198133,55.5531691 216.563932,85.4843255 L188.838641,122.904509 C169.023576,149.646877 255.528813,152.798236 220.485783,160.075163 L174.427684,166.925809 C141.512411,171.821801 200.452433,235.232642 170.527662,215.593569 L133.116761,187.861399 C106.382067,168.042457 103.23045,254.568119 95.9553286,219.516393 L89.1063823,173.446866 C84.2126444,140.523426 20.8164939,199.478073 40.4517338,169.545876 L68.1770252,132.125693 C87.9900113,105.384365 1.48685273,102.231966 36.5298831,94.9560789 L82.5879816,88.1054331 C115.503255,83.2094412 56.5632329,19.7975602 86.4859249,39.4376722 L86.4859249,39.4376722 Z M81.2450102,47.1117678 L119.315963,70.390863 C146.521529,87.0282941 142.156871,4.17592527 152.086752,37.0109903 L162.548832,80.397027 C170.025607,111.405322 225.509452,49.730796 209.319994,79.9717859 L186.044595,118.051145 C169.412331,145.264501 252.245186,140.898761 219.418266,150.831106 L176.040913,161.295782 C145.042389,168.773372 206.699537,224.272025 176.466049,208.078549 L138.396136,184.797375 C111.19161,168.160983 115.556267,251.014392 105.625346,218.179327 L95.164306,174.791211 C87.6864915,143.786034 32.2026462,205.458482 48.3921043,175.217492 L71.6675035,137.138132 C88.2997679,109.925816 5.46795219,114.290516 38.2948718,104.358172 L81.6711853,93.8945355 C112.66867,86.4159052 51.0125616,30.9182927 81.2450102,47.1117678 L81.2450102,47.1117678 Z M76.9770221,55.0062819 L115.223642,73.9435503 C142.554981,87.4774486 131.351772,8.92115932 143.603788,39.3565749 L157.260103,79.7981544 C167.019513,108.699998 214.630552,45.2278143 201.778773,75.4136995 L182.845163,113.66877 C169.314622,141.007931 247.851424,129.801942 217.424598,142.056998 L176.992011,155.715661 C148.097337,165.477493 211.553776,213.101386 181.375379,200.246418 L143.129798,181.30707 C115.797419,167.773172 127.001668,246.329461 114.748613,215.896125 L101.094377,175.453506 C91.3349664,146.551662 43.7228879,210.023846 56.5746669,179.837961 L75.508277,141.58185 C89.038818,114.243729 10.5009766,125.448678 40.9288421,113.194663 L81.3603893,99.5359991 C110.255064,89.7741668 46.798625,42.1502742 76.9770221,55.0062819 L76.9770221,55.0062819 Z" id="Stroke-13"></path>
                            <path d="M73.6788423,63.007886 L111.64481,77.7644826 C138.776575,88.3102559 121.459312,14.5813377 135.689404,42.4746636 L152.103383,79.7607248 C163.833594,106.407439 203.709035,42.0255091 194.053569,71.8121459 L179.300633,109.788574 C168.756437,136.927071 242.467065,119.605511 214.581698,133.839134 L177.303847,150.256147 C150.663743,161.989268 215.029702,201.875643 185.250454,192.216742 L147.284486,177.460145 C120.153761,166.914372 137.469984,240.64329 123.239893,212.751004 L106.825913,175.463903 C95.0957022,148.817189 55.2202615,213.199119 64.8757271,183.411442 L79.628663,145.437093 C90.1718201,118.298596 16.4622313,135.619117 44.3475982,121.386533 L81.62441,104.968481 C108.264514,93.2353597 43.8995946,53.3500247 73.6788423,63.007886 L73.6788423,63.007886 Z M71.334879,71.0084505 L108.59402,81.789198 C135.220611,89.4924056 112.553291,21.0296159 128.412203,46.2800003 L147.136884,80.2556266 C160.519823,104.535962 192.889384,40.0937289 186.253525,69.1640059 L175.474412,106.431352 C167.773116,133.06559 236.219961,110.393685 210.975841,126.255493 L177.008643,144.98378 C152.733291,158.369 217.161617,190.748672 188.097512,184.110127 L150.838371,173.329379 C124.21178,165.626172 146.8791,234.090001 131.020187,208.839617 L112.295507,174.86399 C98.9136077,150.583655 66.5430073,215.026928 73.1788661,185.955611 L83.9569393,148.687225 C91.6592753,122.054027 23.2124297,144.726972 48.4565503,128.865164 L82.4237482,110.134798 C106.69806,96.7495777 42.2718135,64.3699055 71.334879,71.0084505 L71.334879,71.0084505 Z M69.9181066,78.9029645 L106.079587,85.9542742 C131.921392,90.9927063 104.693998,28.1349905 121.830396,50.6842096 L142.415695,81.2464697 C157.126013,103.087647 182.309846,39.3825676 178.486743,67.4474455 L171.437182,103.616859 C166.398961,129.466116 229.241083,102.231966 206.697458,119.373656 L176.14278,139.961983 C154.307021,154.678031 217.996297,179.867072 189.938381,176.043021 L153.7769,168.990672 C127.935095,163.953279 155.16145,226.810995 138.026091,204.261776 L117.440792,173.699516 C102.730474,151.858339 77.5456021,215.562378 81.3697444,187.49854 L88.4193048,151.328087 C93.4575265,125.47987 30.6143643,152.71298 53.1590291,135.573369 L83.7137076,114.982963 C105.548427,100.268994 41.8591512,75.0778734 69.9181066,78.9029645 L69.9181066,78.9029645 Z M69.3890257,86.5895367 L104.099432,90.1952492 C128.904904,92.7716492 97.9240499,35.7622992 115.989718,55.592678 L137.984513,82.6916659 C153.704139,102.058334 172.098274,39.8338015 170.855089,66.633353 L167.249232,101.353411 C164.673471,126.165038 221.669718,95.1754576 201.843219,113.246648 L174.750954,135.246901 C155.38909,150.969387 217.599226,169.369126 190.805283,168.124594 L156.094877,164.518881 C131.289405,161.942481 162.270259,218.951831 144.203552,199.122492 L122.208757,172.021425 C106.49017,152.654756 88.0960354,214.880329 89.3392195,188.080777 L92.9440375,153.360719 C95.5197984,128.549092 38.5235512,159.537633 58.3500502,141.468522 L85.443355,119.46723 C104.805219,103.744743 42.5950829,85.3450044 69.3890257,86.5895367 L69.3890257,86.5895367 Z M69.7008612,93.9735534 L102.650436,94.4497403 C126.197132,94.7897253 92.2715123,43.772221 110.928628,60.9055935 L133.891153,84.5465076 C150.300974,101.441787 162.377323,41.3704921 163.457313,66.6822193 L162.982283,99.6389303 C162.642383,123.192509 213.647231,89.2584709 196.51707,107.920216 L172.88202,130.887399 C155.991972,147.301292 216.047325,159.381677 190.742916,160.461935 L157.793341,159.985748 C134.245606,159.646803 168.171226,210.663267 149.515149,193.530934 L126.552625,169.89002 C110.142803,152.995781 98.0664547,213.064996 96.9864646,187.753269 L97.4614939,154.796558 C97.8013946,131.244019 46.7955067,165.177017 63.9256683,146.516312 L87.5607178,123.548089 C104.450766,107.134196 44.3964525,95.0538115 69.7008612,93.9735534 L69.7008612,93.9735534 Z M70.7954037,100.969758 L101.717009,98.6574446 C123.814709,97.0043065 87.7509375,52.0275142 106.669995,66.5252232 L130.168877,86.760049 C146.963295,101.221368 153.256135,43.9094627 156.386963,67.5420591 L158.698704,98.4713366 C160.350392,120.57452 205.316027,84.5007604 190.822954,103.425552 L170.592108,126.930264 C156.134377,143.72885 213.432065,150.023252 189.805331,153.153817 L158.882686,155.466131 C136.786025,157.118229 172.850836,202.095021 153.931779,187.598352 L130.431858,167.362487 C113.638479,152.902207 107.34356,210.214113 104.214811,186.580477 L101.90307,155.651199 C100.251382,133.549055 55.2847075,169.622815 69.77882,150.699063 L90.0096657,127.192271 C104.466358,110.394725 47.1697092,104.099284 70.7954037,100.969758 L70.7954037,100.969758 Z M72.6050888,107.494975 L101.280439,102.758059 C121.773226,99.3727647 84.3560887,60.3909373 103.227332,72.3475963 L126.851987,89.2792651 C143.734759,101.380444 144.834499,47.350901 149.726158,69.152569 L154.461899,97.8350344 C157.845314,118.331867 196.817471,80.905445 184.864818,99.7803308 L167.93631,123.411888 C155.839172,140.298849 209.856351,141.398861 188.059052,146.290695 L159.383702,151.027611 C138.891954,154.412905 176.309092,193.394732 157.438888,181.438073 L133.813194,164.506405 C116.930422,152.406266 115.831721,206.435808 110.939023,184.63414 L106.204321,155.951675 C102.819867,135.454842 63.8477095,172.881264 75.8014024,154.005339 L92.728871,130.374822 C104.826008,113.487861 50.8098686,112.387848 72.6050888,107.494975 L72.6050888,107.494975 Z M75.0581945,113.482662 L101.31578,106.699597 C120.07892,101.852472 82.0703347,68.7294073 100.600638,78.27498 L123.962311,92.0500909 C140.656943,101.8951 137.196609,51.5887568 143.550776,71.4451284 L150.332158,97.7092295 C155.178081,116.479105 188.292929,78.4600483 178.750764,96.9949491 L164.97803,120.36242 C155.135464,137.060154 205.429327,133.600001 185.577881,139.956784 L159.319256,146.73777 C140.556116,151.584895 178.564702,184.710039 160.035438,175.163427 L136.672725,161.387276 C119.979133,151.543307 123.438428,201.84861 117.08426,181.992239 L110.303918,155.729177 C105.457995,136.959302 72.3421076,174.978358 81.8853123,156.443458 L95.6580455,133.075987 C105.499573,116.377213 55.2067487,119.838406 75.0581945,113.482662 L75.0581945,113.482662 Z" id="Stroke-14"></path>
                            <path d="M78.0694857,118.868357 L101.788731,110.429035 C118.738028,104.397681 80.8604131,76.9098415 98.7815974,84.2065226 L121.518561,95.0143026 C137.768307,102.738304 130.416266,56.5107415 137.930461,74.3448782 L146.36769,98.0700087 C152.397548,115.023511 179.879608,77.1364981 172.584737,95.0621292 L161.779638,117.804734 C154.057552,134.058513 200.273647,126.704647 182.442895,134.220707 L158.72469,142.660029 C141.774353,148.691384 179.653007,176.179223 161.732863,168.883582 L138.99486,158.074762 C122.746153,150.3518 130.097154,196.578323 122.582959,178.744186 L114.145731,155.020095 C108.116912,138.065553 80.6348521,175.953606 87.9297231,158.026935 L98.7348221,135.28433 C106.456908,119.032631 60.2397731,126.385457 78.0694857,118.868357 L78.0694857,118.868357 Z M81.5568456,123.604234 L102.664988,113.900625 C117.747431,106.965763 80.6785091,84.8116335 97.749422,90.0465707 L119.533208,98.1126368 C135.101074,103.877826 124.55168,61.9941693 132.921344,77.7686415 L142.622546,98.8820218 C149.555688,113.968206 171.704321,76.890087 166.471722,93.9652357 L158.405578,115.754427 C152.642859,131.327196 194.517165,120.774145 178.745566,129.146925 L157.637423,138.849494 C142.553942,145.784356 179.623903,167.940565 162.554029,162.704588 L140.769204,154.637482 C125.200298,148.872293 135.750731,190.75699 127.381068,174.981478 L117.679866,153.869137 C110.746724,138.781913 88.597051,175.860032 93.8306896,158.785923 L101.895794,136.995692 C107.659553,121.423963 65.7862866,131.975974 81.5568456,123.604234 L81.5568456,123.604234 Z M85.4267238,127.648704 L103.898817,117.071739 C117.099852,109.514091 81.4643345,92.3152168 97.4698095,95.7015505 L118.008333,101.28791 C132.686428,105.281434 119.646509,67.9142751 128.5702,81.6301225 L139.143501,100.1068 C146.700314,113.31215 163.894922,77.66675 160.509428,93.6772362 L154.923415,114.220856 C150.931921,128.902593 188.287732,115.859438 174.577366,124.785344 L156.104232,135.361269 C142.902158,142.918917 178.538715,160.117791 162.53324,156.731457 L141.993678,151.144058 C127.316622,147.152614 140.356541,184.517693 131.43285,170.803925 L120.858509,152.325168 C113.302736,139.120858 96.108128,174.766258 99.4946612,158.756811 L105.079634,138.212152 C109.072168,123.531454 71.7142788,136.57461 85.4267238,127.648704 L85.4267238,127.648704 Z M89.5855695,130.972655 L105.449679,119.907027 C116.785938,112.000036 83.1451276,99.314541 97.9043003,101.086206 L116.944974,104.481897 C130.551395,106.908579 115.730894,74.1462937 124.915488,85.836787 L135.976292,101.705873 C143.882361,113.044944 156.564709,79.3947471 154.794523,94.1586217 L151.397596,113.20298 C148.971516,126.812777 181.727753,111.9886 170.03912,121.175472 L154.173971,132.240061 C142.837712,140.147051 176.478522,152.832547 161.71935,151.060882 L142.679716,147.665191 C129.073295,145.238509 143.893795,178.000794 134.71024,166.310301 L123.647358,150.441215 C115.741289,139.102143 103.058941,172.75234 104.830166,157.988466 L108.226054,138.944107 C110.652134,125.33431 77.8969367,140.158488 89.5855695,130.972655 L89.5855695,130.972655 Z M93.9367137,133.558412 L107.264562,122.375297 C116.789056,114.38513 85.636693,105.711873 98.9998822,106.1184 L116.329619,107.637415 C128.713644,108.721832 112.815233,80.5561026 121.977998,90.2950613 L133.1573,103.626216 C141.147564,113.153074 149.818669,81.9929811 149.412243,95.3594861 L147.893605,112.693523 C146.807378,125.080621 174.968199,109.179305 165.231657,118.344344 L151.903809,129.526419 C142.378275,137.517626 173.531677,146.190882 160.168488,145.784356 L142.838752,144.265341 C130.454726,143.178844 146.352098,171.346653 137.188293,161.607695 L126.008991,148.2755 C118.020806,138.748642 109.349701,169.909775 109.756127,156.54327 L111.274766,139.209233 C112.359953,126.822135 84.200171,142.723451 93.9367137,133.558412 L93.9367137,133.558412 Z M98.3855664,135.398698 L109.293571,124.452637 C117.088418,116.630902 88.8434011,111.418839 100.698346,110.722233 L116.148754,110.69728 C127.190848,110.678566 110.902642,87.0168573 119.777479,94.9082522 L130.721865,105.820003 C138.541659,113.616785 143.75243,85.3637192 144.448862,97.2216058 L144.47277,112.675847 C144.49148,123.720681 168.148358,107.427394 160.257881,116.305473 L149.350916,127.251535 C141.55399,135.073269 169.800046,140.285333 157.945101,140.981938 L142.494693,141.006891 C131.453639,141.025606 147.741845,164.688354 138.865968,156.795919 L127.922622,145.885208 C120.102828,138.088427 114.892057,166.340452 114.195625,154.482566 L114.170678,139.028324 C114.153007,127.98349 90.4950896,144.276777 98.3855664,135.398698 L98.3855664,135.398698 Z M102.835458,136.49975 L111.482656,126.12137 C117.661156,118.704083 92.6623461,116.362657 102.931088,114.835324 L116.382631,113.611586 C125.994439,112.73719 109.973372,93.4006735 118.313932,99.582786 L128.689737,108.231089 C136.105184,114.412162 138.44499,89.4071494 139.974023,99.6773996 L141.197458,113.13228 C142.070597,122.747513 161.402317,106.722471 155.221738,115.0651 L146.57558,125.44452 C140.39604,132.859728 165.39485,135.201153 155.127148,136.729526 L141.676645,137.953264 C132.063797,138.82766 148.084864,158.163137 139.743265,151.982064 L129.367459,143.333761 C121.953052,137.152688 119.612207,162.156661 118.083173,151.886411 L116.861818,138.43257 C115.987639,128.818377 96.655919,144.843419 102.835458,136.49975 L102.835458,136.49975 Z M107.192839,136.876125 L113.774647,127.367982 C118.478165,120.573481 96.9864646,120.480947 105.624307,118.396329 L117.001104,116.329387 C125.129615,114.851959 109.99728,99.5859052 117.580079,104.21989 L127.085863,110.80541 C133.87764,115.510096 133.97119,94.0120226 136.055291,102.653048 L138.12172,114.030589 C139.598781,122.162157 154.861048,107.027106 150.227173,114.610747 L143.644327,124.11785 C138.940808,130.912352 160.433548,131.004886 151.794666,133.090543 L140.418908,135.157485 C132.289358,136.633873 147.421694,151.900967 139.838894,147.265942 L130.335189,140.682502 C123.541333,135.976777 123.449862,157.47381 121.364722,148.833824 L119.297253,137.455243 C117.821232,129.323676 102.557925,144.459766 107.192839,136.876125 L107.192839,136.876125 Z" id="Stroke-15"></path>
                            <path d="M111.364158,136.554855 L116.114452,128.191432 C119.509301,122.214142 101.69518,123.72692 108.697965,121.36158 L117.969873,118.807014 C124.596377,116.981284 110.930707,105.451946 117.555132,108.73119 L125.91752,113.483702 C131.893327,116.878353 130.378846,99.0618916 132.745677,106.065375 L135.29961,115.339583 C137.124886,121.967731 148.650325,108.297631 145.370856,114.923699 L140.620562,123.288162 C137.226753,129.265452 155.039834,127.751635 148.037049,130.119053 L138.765141,132.67362 C132.139677,134.499349 145.804307,146.026608 139.179882,142.748404 L130.817494,137.996932 C124.842727,134.600201 126.356168,152.418742 123.989337,145.414219 L121.436444,136.140011 C119.611167,129.512903 108.084689,143.181963 111.364158,136.554855 L111.364158,136.554855 Z M115.26522,135.57233 L118.445942,128.588601 C120.720262,123.597996 106.672074,126.064186 112.067867,123.687411 L119.254635,120.999762 C124.390565,119.079418 112.713367,110.887547 118.211026,113.02311 L125.191983,116.205661 C130.18135,118.479506 127.715771,104.428872 130.091957,109.827044 L132.778939,117.014555 C134.699846,122.152799 142.889685,110.471663 140.753612,115.969647 L137.57289,122.953376 C135.29857,127.943981 149.346758,125.47779 143.949925,127.854566 L136.763157,130.542215 C131.628267,132.463598 143.304426,140.65443 137.807806,138.518866 L130.82581,135.336316 C125.836443,133.062471 128.303061,147.113105 125.925835,141.715973 L123.238853,134.527422 C121.318986,129.391257 113.129147,141.070313 115.26522,135.57233 L115.26522,135.57233 Z M118.813908,133.976376 L120.716104,128.570926 C122.074667,124.710485 111.793452,127.477152 115.648778,125.350946 L120.812773,122.875397 C124.504905,121.105812 115.278733,115.789777 119.508261,117.013515 L124.910291,118.916184 C128.771854,120.276124 126.004834,109.991318 128.130512,113.84656 L130.605446,119.013916 C132.375632,122.705925 137.689309,113.477463 136.465874,117.707002 L134.563678,123.111411 C133.204075,126.972892 143.48633,124.206226 139.631004,126.332431 L134.465969,128.80798 C130.773837,130.577565 140.001049,135.89256 135.771521,134.670901 L130.369491,132.768233 C126.507928,131.407253 129.274948,141.69206 127.14927,137.836817 L124.673296,132.669461 C122.905189,128.977452 117.590473,138.205914 118.813908,133.976376 L118.813908,133.976376 Z" id="Stroke-16"></path>
                        </g>
                    </g>
                </g>
            </g>
        </g>
    </g>
</svg>