<?xml version="1.0" encoding="UTF-8" standalone="no"?>
<svg width="90px" height="61px" viewBox="0 0 90 61" version="1.1" xmlns="http://www.w3.org/2000/svg" xmlns:xlink="http://www.w3.org/1999/xlink">
    <!-- Generator: Sketch 3.8.3 (29802) - http://www.bohemiancoding.com/sketch -->
    <title>certificate_cover Copy</title>
    <desc>Created with Sketch.</desc>
    <defs></defs>
    <g id="Page-1" stroke="none" stroke-width="1" fill="none" fill-rule="evenodd">
        <g id="Icons" transform="translate(-738.000000, -4254.000000)">
            <g id="certificate_cover-Copy" transform="translate(738.000000, 4254.000000)">
                <g id="Certificate_cover">
                    <rect id="Rectangle-49-Copy-7" fill="#F8F8F8" x="0" y="0" width="90" height="61" rx="2"></rect>
                    <path d="M60.0026179,41.8666667 C60.0529484,40.8924416 60.8230751,40.1051737 61.8,40.0097183 L61.8,20.9267896 C60.8443887,20.8334168 60.0866506,20.0780889 60.0069346,19.1333333 L29.9930654,19.1333333 C29.9133494,20.0780889 29.1556113,20.8334168 28.2,20.9267896 L28.2,40.0097183 C29.1769249,40.1051737 29.9470516,40.8924416 29.9973821,41.8666667 L41.2599569,41.8666667 L40.117942,46 L36.6,46 L26.1,46 C24.94017,46 24,45.0747533 24,43.9333333 L24,17.0666667 C24,15.9252467 24.94017,15 26.1,15 L63.9,15 C65.05983,15 66,15.9252467 66,17.0666667 L66,43.9333333 C66,45.0747533 65.05983,46 63.9,46 L53.4,46 L49.9986584,46 C49.7741511,45.3585462 49.5617167,44.6880722 49.3789783,44.0095214 C49.1235169,43.0609331 48.968486,42.3699414 48.8787423,41.8666667 L60.0026179,41.8666667 Z" id="Combined-Shape-Copy-5" fill="#777777"></path>
                    <rect id="Rectangle-67-Copy-7" fill="#777777" x="35.8671587" y="21.8804348" width="18" height="2"></rect>
                    <g id="Group" transform="translate(37.859779, 26.190217)">
                        <path d="M13.6409712,7.89618527 C13.5993541,7.95812794 13.5891414,8.03589864 13.613301,8.10644004 L13.9034393,8.95322348 L13.2276414,9.54147189 C13.1713754,9.59045278 13.1412158,9.66284132 13.1461307,9.73720436 L13.2051733,10.6302936 L12.3993222,11.0235101 C12.3321414,11.0563127 12.2841414,11.1185738 12.269652,11.1918222 L12.0958435,12.0701344 L11.2156627,12.2435738 C11.1422584,12.2580324 11.0798648,12.3059305 11.0470244,12.3729687 L10.6529393,13.177077 L9.75794988,13.118128 C9.68326898,13.1132235 9.61091796,13.1433191 9.56180094,13.1994656 L8.97230094,13.8738286 L8.12374774,13.5842745 C8.05299242,13.5601344 7.97512008,13.5703254 7.91304562,13.6118859 L7.16789668,14.1102299 L6.42268391,13.6118859 C6.3827903,13.585198 6.3362903,13.5714401 6.28940732,13.5714401 C6.26339668,13.5714401 6.23722647,13.5756758 6.21198179,13.5842745 L5.36339668,13.8737968 L4.77389668,13.1994337 C4.72481157,13.1432872 4.65242859,13.1133191 4.57774774,13.1180961 L3.68275838,13.1770133 L3.28870519,12.3728732 C3.25583285,12.305835 3.19343923,12.2579369 3.12003498,12.2434783 L2.23985413,12.0700388 L2.06604562,11.1917267 C2.05155625,11.1184783 2.00355625,11.0562172 1.9363754,11.0234465 L1.13055625,10.630198 L1.18963072,9.73710886 C1.19454562,9.66277762 1.16438604,9.59038909 1.10812008,9.54137635 L0.432322211,8.95319164 L0.722492419,8.10644004 C0.746651999,8.03589864 0.736439229,7.95812794 0.694822209,7.89618527 L0.195417956,7.15255469 L0.694822209,6.40892412 C0.736439229,6.34698144 0.746651999,6.26921074 0.722492419,6.19866934 L0.432354126,5.3518859 L1.108152,4.7636375 C1.16441796,4.7146566 1.19457753,4.64226807 1.18966264,4.56790501 L1.13062008,3.67481584 L1.93647115,3.28159928 C2.003652,3.24879673 2.051652,3.18653558 2.06614136,3.11328718 L2.23994987,2.23497508 L3.12013072,2.06153558 C3.19353498,2.04707699 3.25592859,1.9991789 3.28876902,1.93214068 L3.68285413,1.1280324 L4.57784349,1.18698144 C4.65233285,1.19175851 4.72490732,1.16179036 4.77399242,1.10564387 L5.36349242,0.431280809 L6.21204562,0.720834951 C6.28273711,0.744943231 6.36067328,0.734752151 6.42274774,0.693223481 L7.16789668,0.194879535 L7.91310945,0.693223481 C7.97518391,0.734720301 8.05312008,0.744943231 8.12381157,0.720834951 L8.97239668,0.431312656 L9.56189668,1.10567571 C9.61098179,1.16182221 9.68339668,1.19179036 9.75804558,1.18701329 L10.653035,1.12809609 L11.0470882,1.93223622 C11.0799605,1.99927444 11.1423541,2.04717253 11.2157584,2.06163113 L12.0959393,2.23507062 L12.2697478,3.11338272 C12.2842371,3.18663113 12.3322371,3.24889227 12.399418,3.28166297 L13.2052371,3.67491138 L13.1461627,4.56800055 C13.1412478,4.64233176 13.1714073,4.7147203 13.2276733,4.76373304 L13.9034712,5.35198144 L13.613301,6.19873304 C13.5891414,6.26927444 13.5993541,6.34704514 13.6409712,6.40898781 L14.1403754,7.15255469 L13.6409712,7.89618527 L13.6409712,7.89618527 L13.6409712,7.89618527 Z M7.16789668,12.1624347 C4.39955154,12.1624347 2.1473574,9.91502226 2.1473574,7.15255469 C2.1473574,4.39008715 4.39955154,2.14267473 7.16789668,2.14267473 C9.93624178,2.14267473 12.188436,4.39008715 12.188436,7.15255469 C12.188436,9.91502226 9.93624178,12.1624347 7.16789668,12.1624347 L7.16789668,12.1624347 L7.16789668,12.1624347 Z" id="Combined-Shape" fill="#777777"></path>
                        <path d="M1.95158638,7.15255469 C1.95158638,4.28236743 4.29160263,1.94731936 7.16789668,1.94731936 C10.0441907,1.94731936 12.384207,4.28236743 12.384207,7.15255469 C12.384207,10.022742 10.0441907,12.3577901 7.16789668,12.3577901 C4.29160263,12.3577901 1.95158638,10.022742 1.95158638,7.15255469 L1.95158638,7.15255469 Z" id="Shape-Copy" fill="#FFFFFF"></path>
                        <path d="M2.31293302,7.15255469 C2.31293302,4.48119235 4.49085059,2.30789881 7.16789668,2.30789881 C9.84494278,2.30789881 12.0228604,4.48119235 12.0228604,7.15255469 C12.0228604,9.82391706 9.84494278,11.9972106 7.16789668,11.9972106 C4.49085059,11.9972106 2.31293302,9.82391706 2.31293302,7.15255469 L2.31293302,7.15255469 Z M9.75693778,9.41240697 L7.86652682,6.13016199 L9.2226912,9.41240697 L8.85282819,9.41240697 L7.61995147,6.42472244 L8.27748572,9.41240697 L7.90762271,9.41240697 L7.33228024,6.84552308 L7.33228024,9.41240697 L7.00351312,9.41240697 L7.00351312,6.84552308 L6.42817065,9.41240697 L6.05830764,9.41240697 L6.71584189,6.42472244 L5.48296517,9.41240697 L5.11310216,9.41240697 L6.46926654,6.13016199 L4.57885558,9.41240697 L4.16789668,9.41240697 L7.16789668,4.11031893 L10.1678967,9.41240697 L9.75693778,9.41240697 L9.75693778,9.41240697 L9.75693778,9.41240697 Z" id="Combined-Shape" fill="#777777"></path>
                    </g>
                    <path d="M43.9074029,40.441422 L44.6855721,43.9787384 L43.9013291,48.0224287 L42.5792818,46.2924751 L40.5166052,47.0135783 L42.4990236,39.9350481 L43.0490776,40.5642866 L43.9074029,40.441422 Z M44.4376458,40.4349145 C44.6945068,41.6600191 45.0182239,43.1139273 45.3791543,44.5312783 C46.2645074,48.0080051 47.1882361,50.5361621 47.1882361,50.5361621 C47.1882361,50.5361621 48.5102833,48.8062081 48.5102833,48.8062086 C48.5102833,48.806209 50.5729599,49.5273117 50.5729599,49.5273117 C50.5729599,49.5273117 49.3228089,46.590736 48.5102833,43.5659463 C48.1520423,42.2323223 47.8768885,40.8818677 47.6800765,39.7826087 C47.6605061,39.795457 47.6425492,39.8110147 47.6267868,39.829033 L46.9840284,40.5643214 L46.0588126,40.2486075 C45.9816649,40.2222864 45.8967572,40.2333982 45.8290746,40.2787135 L45.0166052,40.8220803 L44.4376458,40.4349145 L44.4376458,40.4349145 Z" id="Combined-Shape-Copy-3" fill="#777777"></path>
                </g>
            </g>
        </g>
    </g>
</svg>