<svg xmlns="http://www.w3.org/2000/svg" width="91" height="73" viewBox="0 0 91 73">
  <g fill="#AAAAAA" fill-rule="evenodd">
    <path d="M77.4,45.4671963 L77.4,12.1358073 C75.4432721,11.9446154 73.8917131,10.3979916 73.7284851,8.463492 L12.2715149,8.463492 C12.1082869,10.3979916 10.5567279,11.9446154 8.6,12.1358073 L8.6,51.2103756 C10.60037,51.4058319 12.1772961,53.0178566 12.2803538,55.0126985 L35.3418166,55.0126985 L33.0034051,63.4761905 L25.8,63.4761905 L4.3,63.4761905 C1.92511,63.4761905 0,61.5816377 0,59.2444444 L0,4.2317461 C0,1.89455277 1.92511,0 4.3,0 L81.7,0 C84.07489,0 86,1.89455277 86,4.2317461 L86,45.9192576 C84.4472003,45.3253571 82.7615957,45 81,45 C79.7553878,45 78.5487088,45.1624112 77.4,45.4671963 Z M67.7308531,63.4761905 L60.2,63.4761905 L53.2353482,63.4761905 C52.7756428,62.1627375 52.340658,60.7898621 51.9664794,59.4004486 C51.4433918,57.4581011 51.1259476,56.0432133 50.9421867,55.0126985 L67.5759847,55.0126985 C67.2012046,56.2763856 67,57.6146959 67,59 C67,60.5653547 67.2569054,62.0707059 67.7308531,63.4761905 Z"/>
    <rect width="36.857" height="4.095" x="24.299" y="14.089"/>
    <g transform="translate(28.38 22.913)">
      <path d="M27.9315124,16.1683794 C27.8462964,16.2952144 27.8253847,16.4544591 27.8748544,16.598901 L28.4689471,18.3327909 L27.0851704,19.5372996 C26.9699591,19.6375938 26.9082037,19.7858179 26.9182676,19.9380851 L27.0391643,21.7667916 L25.3890883,22.5719492 C25.2515276,22.6391164 25.1532419,22.7666034 25.1235731,22.9165882 L24.7676795,24.715037 L22.9654045,25.0701748 C22.8151005,25.0997805 22.6873422,25.1978576 22.6200975,25.3351263 L21.8131614,26.9816338 L19.980564,26.8609287 C19.827646,26.8508861 19.6794987,26.9125105 19.5789257,27.0274771 L18.3718543,28.4083156 L16.6343406,27.8154191 C16.4894607,27.7659894 16.3300078,27.7868567 16.2029029,27.8719568 L14.6771218,28.8923754 L13.1512099,27.8719568 C13.069523,27.8173101 12.9743087,27.7891392 12.8783102,27.7891392 C12.8250503,27.7891392 12.7714637,27.7978123 12.7197722,27.8154191 L10.9821932,28.4082505 L9.77512177,27.0274118 C9.67461417,26.9124451 9.5264014,26.8510819 9.37348347,26.8608634 L7.5408862,26.9815033 L6.73401539,25.3349308 C6.66670536,25.1976621 6.53894699,25.099585 6.38864305,25.0699793 L4.58636798,24.7148413 L4.23047436,22.9163927 C4.20080565,22.7664079 4.10251994,22.6389209 3.96495915,22.5718189 L2.31494851,21.7665958 L2.43591052,19.9378896 C2.44597436,19.7856875 2.38421903,19.6374634 2.26900778,19.537104 L0.885231194,18.3327257 L1.47938924,16.598901 C1.52885886,16.4544591 1.50794699,16.2952144 1.42273119,16.1683794 L0.400141529,14.6457072 L1.42273119,13.1230351 C1.50794699,12.9962001 1.52885886,12.8369553 1.47938924,12.6925134 L0.885296544,10.9586235 L2.26907314,9.75411488 C2.38428439,9.65382066 2.4460397,9.50559653 2.43597588,9.35332931 L2.31507921,7.52462291 L3.96515521,6.71946519 C4.102716,6.65229807 4.20100171,6.52481095 4.2306704,6.37482613 L4.58656402,4.57637755 L6.38883909,4.22123952 C6.53914305,4.19163384 6.6669014,4.0935568 6.73414609,3.95628806 L7.54108226,2.30978063 L9.37367953,2.43048581 C9.52620536,2.44026743 9.67481022,2.37890407 9.77531781,2.26393745 L10.9823892,0.883098799 L12.7199029,1.47599538 C12.8646522,1.52535995 13.0242358,1.5044925 13.1513406,1.4194576 L14.6771218,0.399039048 L16.2030336,1.4194576 C16.3301385,1.50442728 16.4897221,1.52535995 16.6344713,1.47599538 L18.3720503,0.88316401 L19.5791218,2.26400265 C19.6796294,2.37896929 19.8279075,2.44033264 19.98076,2.43055102 L21.8133573,2.30991104 L22.6202282,3.95648369 C22.6875381,4.09375243 22.8152964,4.19182947 22.9656005,4.22143517 L24.7678757,4.57657318 L25.1237693,6.37502176 C25.1534378,6.5250066 25.2517235,6.6524937 25.3892844,6.71959561 L27.039295,7.52481854 L26.9183331,9.35352494 C26.9082693,9.50572694 26.9700244,9.65395109 27.0852358,9.75431051 L28.4690124,10.9588191 L27.8748544,12.6926438 C27.8253847,12.8370858 27.8462964,12.9963305 27.9315124,13.1231655 L28.954102,14.6457072 L27.9315124,16.1683794 L27.9315124,16.1683794 L27.9315124,16.1683794 Z M14.6771218,24.9040329 C9.00860553,24.9040329 4.39696991,20.3021884 4.39696991,14.6457072 C4.39696991,8.98922607 9.00860553,4.38738159 14.6771218,4.38738159 C20.3456379,4.38738159 24.9572737,8.98922607 24.9572737,14.6457072 C24.9572737,20.3021884 20.3456379,24.9040329 14.6771218,24.9040329 L14.6771218,24.9040329 L14.6771218,24.9040329 Z"/>
      <path d="M4.73600571,14.6457072 C4.73600571,9.17577481 9.19555121,4.72569757 14.6771218,4.72569757 C20.1586924,4.72569757 24.6182379,9.17577481 24.6182379,14.6457072 C24.6182379,20.1156397 20.1586924,24.5657169 14.6771218,24.5657169 C9.19555121,24.5657169 4.73600571,20.1156397 4.73600571,14.6457072 Z M19.9784916,19.2730238 L20.8199789,19.2730238 L14.6771218,8.41636733 L8.53426463,19.2730238 L9.3757519,19.2730238 L13.2465934,12.5522365 L10.4696854,19.2730238 L11.2270239,19.2730238 L13.7514858,13.155384 L12.4051061,19.2730238 L13.1624447,19.2730238 L14.3405269,14.0170235 L14.3405269,19.2730238 L15.0137167,19.2730238 L15.0137167,14.0170235 L16.1917989,19.2730238 L16.9491374,19.2730238 L15.6027578,13.155384 L18.1272196,19.2730238 L18.8845582,19.2730238 L16.1076502,12.5522365 L19.9784916,19.2730238 Z"/>
    </g>
    <path d="M40.7627774 52.0943403L42.3561714 59.3374168 40.7503405 67.617354 38.0432912 64.0750681 33.8197153 65.5516127 37.878953 51.0574794 39.0052541 52.3459202 40.7627774 52.0943403zM41.8485128 52.0810154C42.3744662 54.5895629 43.0373155 57.566613 43.7763635 60.4688079 45.5892294 67.58782 47.4806738 72.7645224 47.4806738 72.7645224 47.4806738 72.7645224 50.1877229 69.2222356 50.1877229 69.2222366 50.1877229 69.2222375 54.4112988 70.6987811 54.4112988 70.6987811 54.4112988 70.6987811 51.8514658 64.6857928 50.1877229 58.4921757 49.4541818 55.7614218 48.8907716 52.9962053 48.4877756 50.7453416 48.4477029 50.77165 48.410934 50.8035063 48.3786586 50.8404009L47.0625343 52.3459914 45.1680448 51.6995296C45.0100757 51.645634 44.8362171 51.6683868 44.6976289 51.7611753L43.0340011 52.8737835 41.8485128 52.0810154 41.8485128 52.0810154zM83 49.2002C87.5645 50.1268 91 54.1621 91 59 91 64.5228 86.5229 69 81 69 76.1621 69 72.1268 65.5645 71.2002 61 71.069 60.3538 71 59.685 71 59 71 58.315 71.069 57.6462 71.2002 57 71.9956 53.0818 75.0818 49.9956 79 49.2002 79.6462 49.069 80.315 49 81 49 81.685 49 82.3538 49.069 83 49.2002zM87 60L87 58 83 58 82 58 82 53 80 53 80 58 75 58 75 60 80 60 80 61 80 65 82 65 82 61 82 60 83 60 87 60z"/>
  </g>
</svg>
