<?xml version="1.0" encoding="UTF-8" standalone="no"?>
<svg width="90px" height="61px" viewBox="0 0 90 61" version="1.1" xmlns="http://www.w3.org/2000/svg" xmlns:xlink="http://www.w3.org/1999/xlink">
    <!-- Generator: Sketch 3.8.3 (29802) - http://www.bohemiancoding.com/sketch -->
    <title>course_cover</title>
    <desc>Created with Sketch.</desc>
    <defs></defs>
    <g id="Page-1" stroke="none" stroke-width="1" fill="none" fill-rule="evenodd">
        <g id="course_cover">
            <rect id="Rectangle-49-Copy-2" fill="#F8F8F8" x="0" y="0" width="90" height="61" rx="2"></rect>
            <path d="M26.4582108,35.9754385 C25.4243409,35.7964312 24.3823201,36.5456379 24.0810034,37.8149932 C23.7481373,39.2172559 24.4719249,40.6326084 25.6239973,40.9810617 L47.4250258,47.5749536 C47.5557144,47.6144814 47.8537801,47.5237692 47.9457783,47.411742 L66.3651085,24.7619487 L67.1579183,25.2272304 C67.642844,25.5118221 67.7477903,26.0859097 67.4012919,26.514755 L49.4913937,48.6810225 C48.8868729,49.4171536 47.7506951,49.762934 46.8460148,49.4893063 L25.0449863,42.8954145 C22.8370768,42.2276149 21.5673571,39.7447029 22.1350768,37.3530734 C22.2845679,36.7233132 22.5485311,36.1567667 22.8968025,35.6747282 L22.8893401,35.6765003 L22.9467344,35.6069636 C23.0286247,35.4979813 23.1148964,35.3935196 23.2051829,35.2938371 L42.8142352,11.536249 C43.1665673,11.1093768 43.8861302,10.8933684 44.4158337,11.0521055 L66.3177086,17.6154762 C66.849915,17.7749633 66.999974,18.2547187 66.6527694,18.687171 L48.0052072,41.9131933 C47.6580498,42.3455868 46.9496947,42.5578001 46.4307755,42.3896872 L33.6156475,38.2380017 L26.4582108,35.9754385 Z M47.8759899,30.7787049 C51.2869881,29.7358581 53.3322025,26.5356265 52.4441041,23.6307876 C51.5560057,20.7259486 48.0708993,19.2165058 44.6599011,20.2593526 C41.2489029,21.3021994 39.2036885,24.502431 40.0917869,27.4072699 C40.9798853,30.3121089 44.4649917,31.8215517 47.8759899,30.7787049 Z M47.6325644,24.2799478 L46.9754645,28.0575158 L46.6114062,27.9358648 L47.2110913,24.4978292 L46.0450931,27.7466299 L45.6810347,27.6249789 L46.6725526,24.830329 L45.1147217,27.4357441 L44.7911143,27.3276098 L46.3489452,24.7221948 L44.2248012,27.138375 L43.8607428,27.016724 L46.3211708,24.2004602 L43.2944298,26.8274891 L42.9303714,26.7058381 L46.2572327,23.8203775 L42.4045093,26.5301201 L42,26.3949523 L48.1707327,22 L47.905836,28.3684016 L47.5013267,28.2332339 L47.6325644,24.2799478 Z" id="Combined-Shape" fill="#777777"></path>
        </g>
    </g>
</svg>