<svg xmlns="http://www.w3.org/2000/svg" width="90" height="61" viewBox="0 0 90 61">
  <g fill="none" fill-rule="evenodd">
    <rect width="90" height="61" fill="#F8F8F8" rx="2"/>
    <g transform="translate(26 15)">
      <rect width="37" height="32" stroke="#777777" rx="2"/>
      <path fill="#777777" d="M0,1.99810135 C0,0.894580447 0.896278629,0 2.00239962,0 L34.9976004,0 C36.1034952,0 37,0.886706352 37,1.99810135 L37,8 L0,8 L0,1.99810135 Z M6.48648649,3.96484661 C6.48648649,3.15583417 7.1342892,2.5 7.94594595,2.5 C8.75198315,2.5 9.40540541,3.15095532 9.40540541,3.96484661 L9.40540541,4.03515339 C9.40540541,4.84416583 8.75760269,5.5 7.94594595,5.5 C7.13990874,5.5 6.48648649,4.84904468 6.48648649,4.03515339 L6.48648649,3.96484661 Z M27.4864865,3.86990285 C27.4864865,3.1133264 28.092302,2.5 28.8513514,2.5 C29.6051454,2.5 30.2162162,3.10876377 30.2162162,3.86990285 L30.2162162,3.93565271 C30.2162162,4.69222916 29.6104007,5.30555556 28.8513514,5.30555556 C28.0975573,5.30555556 27.4864865,4.69679178 27.4864865,3.93565271 L27.4864865,3.86990285 Z"/>
    </g>
    <circle cx="34" cy="35" r="1" fill="#777777"/>
    <circle cx="34" cy="41" r="1" fill="#777777"/>
    <circle cx="41" cy="29" r="1" fill="#777777"/>
    <circle cx="41" cy="35" r="1" fill="#777777"/>
    <circle cx="41" cy="41" r="1" fill="#777777"/>
    <circle cx="48" cy="29" r="1" fill="#777777"/>
    <circle cx="48" cy="41" r="1" fill="#777777"/>
    <path fill="#777777" d="M45,35 C45,36.65684 46.311746,38 47.9298356,38 C49.5479253,38 50.8596713,36.65684 50.8596713,35 C50.8596713,33.34316 49.5479253,32 47.9298356,32 C46.311746,32 45,33.34316 45,35 L45,35 Z M49.2006991,36.0672507 L48.3215573,34.5408319 L48.952246,36.0672507 L48.78024,36.0672507 L48.2068866,34.6778182 L48.5126751,36.0672507 L48.3406691,36.0672507 L48.0731042,34.8735129 L48.0731042,36.0672507 L47.92021,36.0672507 L47.92021,34.8735129 L47.6526451,36.0672507 L47.4806391,36.0672507 L47.7864275,34.6778182 L47.2130742,36.0672507 L47.0410682,36.0672507 L47.6717569,34.5408319 L46.792615,36.0672507 L46.6014973,36.0672507 L47.9966571,33.6014973 L49.3918169,36.0672507 L49.2006991,36.0672507 L49.2006991,36.0672507 L49.2006991,36.0672507 Z"/>
    <circle cx="55" cy="29" r="1" fill="#777777"/>
    <circle cx="55" cy="35" r="1" fill="#777777"/>
  </g>
</svg>
