<svg xmlns="http://www.w3.org/2000/svg" width="90" height="61" viewBox="0 0 90 61">
  <g fill="none" fill-rule="evenodd">
    <rect width="90" height="61" fill="#F8F8F8" rx="2"/>
    <path fill="#777777" d="M57.09555,37 L52.2243,37 C52.80855,35.3473 53.15805,33.5842 53.23335,31.75 L58.479,31.75 C58.3761,33.628 57.8892,35.40355 57.09555,37 L57.09555,37 Z M47.39025,44.2891 C49.15965,42.6718 50.60445,40.7059 51.61695,38.5 L56.226,38.5 C54.2262,41.48725 51.0663,43.63225 47.39025,44.2891 L47.39025,44.2891 Z M45.75,43.7284 L45.75,38.5 L49.95075,38.5 C48.9186,40.519 47.48295,42.29725 45.75,43.7284 L45.75,43.7284 Z M45.75,31.75 L51.7323,31.75 C51.6498,33.595 51.2646,35.36125 50.62455,37 L45.75,37 L45.75,31.75 Z M45.75,25 L50.62455,25 C51.2646,26.63875 51.6498,28.405 51.7323,30.25 L45.75,30.25 L45.75,25 Z M45.75,18.2716 C47.48295,19.70275 48.9186,21.481 49.95075,23.5 L45.75,23.5 L45.75,18.2716 Z M56.226,23.5 L51.61695,23.5 C50.60445,21.2941 49.15965,19.3282 47.39025,17.7109 C51.0663,18.36775 54.2262,20.51275 56.226,23.5 L56.226,23.5 Z M58.479,30.25 L53.23335,30.25 C53.15805,28.4158 52.80855,26.6527 52.2243,25 L57.09555,25 C57.8892,26.59645 58.3761,28.37185 58.479,30.25 L58.479,30.25 Z M44.25,23.5 L40.04925,23.5 C41.0814,21.481 42.5172,19.70275 44.25,18.2716 L44.25,23.5 Z M44.25,30.25 L38.2677,30.25 C38.3502,28.405 38.73555,26.63875 39.37545,25 L44.25,25 L44.25,30.25 Z M44.25,37 L39.37545,37 C38.73555,35.36125 38.3502,33.595 38.2677,31.75 L44.25,31.75 L44.25,37 Z M44.25,43.7284 C42.5172,42.29725 41.0814,40.519 40.04925,38.5 L44.25,38.5 L44.25,43.7284 Z M33.774,38.5 L38.3832,38.5 C39.3957,40.7059 40.8405,42.6718 42.6099,44.2891 C38.93385,43.63225 35.7738,41.48725 33.774,38.5 L33.774,38.5 Z M31.52115,31.75 L36.7668,31.75 C36.8421,33.5842 37.1916,35.3473 37.7757,37 L32.9046,37 C32.11095,35.40355 31.6239,33.628 31.52115,31.75 L31.52115,31.75 Z M32.9046,25 L37.7757,25 C37.1916,26.6527 36.8421,28.4158 36.7668,30.25 L31.52115,30.25 C31.6239,28.37185 32.11095,26.59645 32.9046,25 L32.9046,25 Z M42.6099,17.7109 C40.8405,19.3282 39.3957,21.2941 38.3832,23.5 L33.774,23.5 C35.7738,20.51275 38.93385,18.36775 42.6099,17.7109 L42.6099,17.7109 Z M47.4495,16.20025 C46.7178,16.07995 45.96855,16.01275 45.20535,16.00255 C45.1368,16.00165 45.06855,16 45,16 C44.93145,16 44.8632,16.00165 44.79465,16.00255 C44.03145,16.01275 43.2822,16.07995 42.5505,16.20025 C35.43165,17.36965 30,23.54995 30,31 C30,38.45005 35.43165,44.63035 42.5505,45.79975 C43.2822,45.92005 44.03145,45.98725 44.79465,45.99745 C44.8632,45.99835 44.93145,46 45,46 C45.06855,46 45.1368,45.99835 45.20535,45.99745 C45.96855,45.98725 46.7178,45.92005 47.4495,45.79975 C54.56835,44.63035 60,38.45005 60,31 C60,23.54995 54.56835,17.36965 47.4495,16.20025 L47.4495,16.20025 Z"/>
  </g>
</svg>
