<?xml version="1.0" encoding="UTF-8" standalone="no"?>
<svg width="48px" height="68px" viewBox="0 0 48 68" version="1.1" xmlns="http://www.w3.org/2000/svg" xmlns:xlink="http://www.w3.org/1999/xlink" xmlns:sketch="http://www.bohemiancoding.com/sketch/ns">
    <!-- Generator: Sketch 3.4.4 (17249) - http://www.bohemiancoding.com/sketch -->
    <title>Import</title>
    <desc>Created with Sketch.</desc>
    <defs></defs>
    <g id="Design" stroke="none" stroke-width="1" fill="none" fill-rule="evenodd" sketch:type="MSPage">
        <g id="Import:-Select-source" sketch:type="MSArtboardGroup" transform="translate(-700.000000, -260.000000)" fill="#AAAAAA">
            <g id="Modal" sketch:type="MSLayerGroup" transform="translate(480.000000, 50.000000)">
                <path d="M224.998885,266 C224.447216,266 224,265.550457 224,265.007664 L224,214.992336 C224,214.444284 224.455306,214 224.991803,214 L243.008197,214 C243.555955,214 244,214.455761 244,215.002473 L244,223.99147 C244,225.10075 244.90195,226 246.00853,226 L254.997527,226 C255.551177,226 256,226.442056 256,227.001617 L256,254.1428 C256.6533,254.0494 257.3208,254 258,254 C258.6792,254 259.3467,254.0494 260,254.1428 L260,226 L260,224 C260,222.895431 259.366188,221.366188 258.58975,220.58975 L256,218 L252,214 L249.41025,211.41025 C248.631391,210.631391 247.11227,210 246,210 L244,210 L222.004947,210 C220.897645,210 220,210.89473 220,211.996307 L220,268.003693 C220,269.106223 220.887888,270 221.996247,270 L244.1428,270 C244.0494,269.3467 244,268.6792 244,268 C244,267.3208 244.0494,266.6533 244.1428,266 L224.998885,266 Z M264,269 L260,269 L259,269 L259,270 L259,274 L257,274 L257,270 L257,269 L252,269 L252,267 L257,267 L257,262 L259,262 L259,267 L260,267 L264,267 L264,269 Z M260,258.2002 C259.3538,258.069 258.685,258 258,258 C257.315,258 256.6462,258.069 256,258.2002 C252.0818,258.9956 248.9956,262.0818 248.2002,266 C248.069,266.6462 248,267.315 248,268 C248,268.685 248.069,269.3538 248.2002,270 C249.1268,274.5645 253.1621,278 258,278 C263.5229,278 268,273.5228 268,268 C268,263.1621 264.5645,259.1268 260,258.2002 L260,258.2002 Z" id="Import" sketch:type="MSShapeGroup"></path>
            </g>
        </g>
    </g>
</svg>