<?xml version="1.0" encoding="UTF-8" standalone="no"?>
<svg width="90px" height="61px" viewBox="0 0 90 61" version="1.1" xmlns="http://www.w3.org/2000/svg" xmlns:xlink="http://www.w3.org/1999/xlink">
    <!-- Generator: Sketch 3.8.3 (29802) - http://www.bohemiancoding.com/sketch -->
    <title>lesson_cover</title>
    <desc>Created with Sketch.</desc>
    <defs>
        <path d="M28.2,17.2 L61.8,17.2 L61.8,40.3 L28.2,40.3 L28.2,17.2 Z M63.9,13 L26.1,13 C24.94017,13 24,13.94017 24,15.1 L24,42.4 C24,43.55983 24.94017,44.5 26.1,44.5 L36.6,44.5 L41.5602,44.5 L38.35098,50.8 L40.70781,50.8 L43.91682,44.5 L46.08297,44.5 L49.29219,50.8 L51.64902,50.8 L48.44001,44.5 L53.4,44.5 L63.9,44.5 C65.05983,44.5 66,43.55983 66,42.4 L66,15.1 C66,13.94017 65.05983,13 63.9,13 Z M47.1,27.7 L57.6,27.7 L57.6,25.6 L50.71875,25.6 L47.1,25.6 L47.1,27.7 Z M47.1,31.9 L57.6,31.9 L57.6,29.8 L47.1,29.8 L47.1,31.9 Z" id="path-1"></path>
        <filter x="-50%" y="-50%" width="200%" height="200%" filterUnits="objectBoundingBox" id="filter-2">
            <feOffset dx="0" dy="0" in="SourceAlpha" result="shadowOffsetOuter1"></feOffset>
            <feColorMatrix values="0 0 0 0 1   0 0 0 0 1   0 0 0 0 1  0 0 0 1 0" type="matrix" in="shadowOffsetOuter1"></feColorMatrix>
        </filter>
    </defs>
    <g id="Page-1" stroke="none" stroke-width="1" fill="none" fill-rule="evenodd">
        <g id="lesson_cover">
            <rect id="Rectangle-49-Copy" fill="#F8F8F8" x="0" y="0" width="90" height="61" rx="2"></rect>
            <g id="Combined-Shape">
                <use fill="black" fill-opacity="1" filter="url(#filter-2)" xlink:href="#path-1"></use>
                <use fill="#777777" fill-rule="evenodd" xlink:href="#path-1"></use>
            </g>
            <path d="M32,28.6197411 C32,31.7234117 34.4572243,34.2394822 37.4883059,34.2394822 C40.5193875,34.2394822 42.9766119,31.7234117 42.9766119,28.6197411 C42.9766119,25.5160705 40.5193875,23 37.4883059,23 C34.4572243,23 32,25.5160705 32,28.6197411 Z M39.8689472,30.6189653 L38.2220974,27.7596058 L39.4035331,30.6189653 L39.0813234,30.6189653 L38.0072909,28.016215 L38.5801082,30.6189653 L38.2578985,30.6189653 L37.7566833,28.3827996 L37.7566833,30.6189653 L37.4702747,30.6189653 L37.4702747,28.3827996 L36.9690595,30.6189653 L36.6468498,30.6189653 L37.2196671,28.016215 L36.1456346,30.6189653 L35.8234249,30.6189653 L37.0048606,27.7596058 L35.3580108,30.6189653 L35,30.6189653 L37.613479,26 L40.226958,30.6189653 L39.8689472,30.6189653 L39.8689472,30.6189653 Z" id="Combined-Shape" fill="#777777"></path>
        </g>
    </g>
</svg>