<?xml version="1.0" encoding="UTF-8" standalone="no"?>
<svg width="352px" height="96px" viewBox="0 0 352 96" version="1.1" xmlns="http://www.w3.org/2000/svg" xmlns:xlink="http://www.w3.org/1999/xlink">
    <!-- Generator: Sketch 39.1 (31720) - http://www.bohemiancoding.com/sketch -->
    <title>Group 2</title>
    <desc>Created with Sketch.</desc>
    <defs></defs>
    <g id="Page" stroke="none" stroke-width="1" fill="none" fill-rule="evenodd">
        <g id="LESSON-summary" transform="translate(-610.000000, -443.000000)">
            <g id="Group-2" transform="translate(610.000000, 443.000000)">
                <path d="M44.0967235,4.34227264 C44.0967235,6.47030248 46,6.71794872 46,6.71794872 C68.7994474,6.71794872 87.2820513,25.2005526 87.2820513,48 C87.2820513,70.7994474 68.7994474,89.2820513 46,89.2820513 C23.2005526,89.2820513 4.71794872,70.7994474 4.71794872,48 C4.71794872,35.828976 10.0091354,24.5271017 19.0488978,16.7284536 C19.0488978,16.7284536 20.9039338,15.2345315 19.2978328,13.4521985 C17.6917318,11.6698655 15.967059,13.1561561 15.967059,13.1561561 C6.18916196,21.5915966 0,34.0730202 0,48 C0,73.4050985 20.5949015,94 46,94 C71.4050985,94 92,73.4050985 92,48 C92,22.5949015 71.4050985,2 46,2 C46,2 44.0967235,2.21424279 44.0967235,4.34227264 Z" id="Shape-Copy" fill="#DEDEDE"></path>
                <path d="M46.3501728,82.5 C65.4039967,82.5 80.8501728,67.0538239 80.8501728,48 C80.8501728,28.9461761 65.4039967,13.5 46.3501728,13.5 C46.3501728,13.5 44.1251229,13.51416 44.1251229,15.8435059 C44.1251229,18.1728518 46.3501728,18.5 46.3501728,18.5 C62.6425729,18.5 75.8501728,31.7075999 75.8501728,48 C75.8501728,64.2924001 62.6425729,77.5 46.3501728,77.5 C38.0828358,77.5 30.3680017,74.0851424 24.8238823,68.171143 C24.8238823,68.171143 23.1054688,66.4194336 21.4262695,68.1711426 C19.7470702,69.9228516 21.1761177,71.5907649 21.1761177,71.5907649 C27.6559077,78.5028588 36.6862348,82.5 46.3501728,82.5 Z" id="Oval-2" fill="#DEDEDE"></path>
                <g id="Group" transform="translate(108.000000, 0.000000)">
                    <circle id="Shape" fill="#D8D8D8" cx="12" cy="12" r="12"></circle>
                    <polygon id="Checkmark" fill="#EFEFEF" points="16.2857258 8 10.5714786 13.6875304 7.71427417 10.843725 6 12.5500404 8.85720443 15.3937654 10.5714786 17.1000004 12.2857528 15.3937654 18 9.70623499"></polygon>
                    <circle id="Shape" fill="#D8D8D8" cx="12" cy="48" r="12"></circle>
                    <polygon id="Close" fill="#EFEFEF" points="15.8823706 42 11.9999002 45.8824704 8.11762944 42.0000998 6 44.1177293 9.88227073 48.0000998 6 51.8823706 8.11762944 54 11.9999002 50.1178291 15.8823706 54.0000998 17.9999002 51.8824704 14.1176294 48.0000998 17.9999002 44.1177293"></polygon>
                    <rect id="Shape" fill="#DEDEDE" x="34" y="44" width="101" height="8" rx="2"></rect>
                    <rect id="Shape-Copy-6" fill="#DEDEDE" x="143" y="44" width="101" height="8" rx="2"></rect>
                    <circle id="Shape-Copy-4" fill="#D8D8D8" cx="12" cy="84" r="12"></circle>
                    <polygon id="Checkmark-Copy" fill="#EFEFEF" points="16.2857258 80 10.5714786 85.6875304 7.71427417 82.843725 6 84.5500404 8.85720443 87.3937654 10.5714786 89.1000004 12.2857528 87.3937654 18 81.706235"></polygon>
                    <rect id="Shape-Copy-3" fill="#DEDEDE" x="98" y="81" width="146" height="8" rx="2"></rect>
                    <rect id="Shape-Copy-5" fill="#DEDEDE" x="34" y="8" width="146" height="8" rx="2"></rect>
                    <rect id="Shape-Copy" fill="#DEDEDE" x="34" y="81" width="56" height="8" rx="2"></rect>
                    <path d="M188,9.99810135 C188,8.89458045 188.902308,8 189.99307,8 L242.00693,8 C243.107672,8 244,8.88670635 244,9.99810135 L244,14.0018986 C244,15.1054196 243.097692,16 242.00693,16 L189.99307,16 C188.892328,16 188,15.1132936 188,14.0018986 L188,9.99810135 Z" id="Shape-Copy-2" fill="#DEDEDE"></path>
                </g>
            </g>
        </g>
    </g>
</svg>